<svg xmlns="http://www.w3.org/2000/svg" viewBox="0 0 256 256" width="100%" height="100%">
  <defs>
    <linearGradient id="bg3" x1="0%" y1="0%" x2="100%" y2="100%">
      <stop offset="0%" stop-color="#052E16" />
      <stop offset="100%" stop-color="#022C22" />
    </linearGradient>
    <linearGradient id="termBg3" x1="0%" y1="0%" x2="0%" y2="100%">
      <stop offset="0%" stop-color="#064E3B" />
      <stop offset="100%" stop-color="#020617" />
    </linearGradient>
    <filter id="glow3" x="-30%" y="-30%" width="160%" height="160%">
      <feGaussianBlur stdDeviation="4" result="blur" />
      <feComposite in="SourceGraphic" in2="blur" operator="over" />
    </filter>
  </defs>

  <polygon points="128,8 232,68 232,188 128,248 24,188 24,68" fill="url(#bg3)" stroke="#10B981" stroke-width="4" />

  <polygon points="128,22 220,75 220,181 128,234 36,181 36,75" fill="url(#termBg3)" stroke="#047857" stroke-width="4" />

  <line x1="60" y1="88" x2="60" y2="168" stroke="#064E3B" stroke-width="8" />
  <line x1="82" y1="75" x2="82" y2="181" stroke="#064E3B" stroke-width="8" />
  <line x1="104" y1="62" x2="104" y2="194" stroke="#064E3B" stroke-width="8" />
  <line x1="152" y1="62" x2="152" y2="194" stroke="#064E3B" stroke-width="8" />
  <line x1="174" y1="75" x2="174" y2="181" stroke="#064E3B" stroke-width="8" />
  <line x1="196" y1="88" x2="196" y2="168" stroke="#064E3B" stroke-width="8" />

  <g fill="none" stroke="#34D399" stroke-width="6" filter="url(#glow3)">
    <circle cx="128" cy="128" r="42" />
    <line x1="128" y1="72" x2="128" y2="60" stroke-width="12" stroke-linecap="round" />
    <line x1="128" y1="184" x2="128" y2="196" stroke-width="12" stroke-linecap="round" />
    <line x1="72" y1="128" x2="60" y2="128" stroke-width="12" stroke-linecap="round" />
    <line x1="184" y1="128" x2="196" y2="128" stroke-width="12" stroke-linecap="round" />
    <line x1="88" y1="88" x2="79" y2="79" stroke-width="12" stroke-linecap="round" />
    <line x1="168" y1="168" x2="177" y2="177" stroke-width="12" stroke-linecap="round" />
    <line x1="88" y1="168" x2="79" y2="177" stroke-width="12" stroke-linecap="round" />
    <line x1="168" y1="88" x2="177" y2="79" stroke-width="12" stroke-linecap="round" />
  </g>

  <g fill="#A7F3D0" filter="url(#glow3)">
    <path d="M 104,116 L 118,128 L 104,140" fill="none" stroke="#A7F3D0" stroke-width="6" stroke-linecap="round" stroke-linejoin="round" />
    <rect x="128" y="136" width="20" height="6" />
  </g>
</svg>
